<svg xmlns="http://www.w3.org/2000/svg" viewBox="0 0 312.65 599.96"><defs><style>.cls-1{opacity:0.5;}.cls-2{fill:none;stroke:#fff;stroke-width:0.5px;}</style></defs><g id="レイヤー_2" data-name="レイヤー 2"><g id="レイヤー_2-2" data-name="レイヤー 2"><g class="cls-1"><path class="cls-2" d="M16.66,45.92V29.55a2.78,2.78,0,0,0-.39-1.38L.43.25h9.7c3.76,7.06,9,17.16,11.22,21.78,2-4.49,7.59-14.85,11.35-21.78h9L25.57,28.17a1.89,1.89,0,0,0-.33,1.32V45.92Z"/><path class="cls-2" d="M74.48,28.89c0,10.1-5.94,17.82-16.57,17.82-10.29,0-16.3-7.52-16.3-17.69s6.14-17.81,16.7-17.81C68.14,11.21,74.48,18.27,74.48,28.89ZM49.93,29c0,6.86,3.1,11.22,8.18,11.22s8-4.29,8-11.16c0-7.32-2.84-11.28-8.12-11.28C53,17.74,49.93,21.57,49.93,29Z"/><path class="cls-2" d="M108.33,36c0,3.3,0,7.19.07,9.9h-8c-.14-.93-.2-2.84-.27-4.29-1.91,3.5-5,5.08-9.63,5.08C84,46.71,79.23,43,79.23,34.17V12h8.18V32.52c0,4,1.19,7.39,5.81,7.39,5,0,6.93-2.7,6.93-10V12h8.18Z"/><path class="cls-2" d="M156.78,37.6a67.78,67.78,0,0,0,.46,8.32h-7.85a16.35,16.35,0,0,1-.53-3.7c-1.19,2.05-3.63,4.49-9.83,4.49-8.12,0-11.55-5.35-11.55-10.56,0-7.65,6.13-11.22,16.1-11.22h5.15V22.62c0-2.64-.86-5.41-5.94-5.41-4.49,0-5.41,2.05-5.88,4.55h-7.85c.46-5.54,4-10.62,14.06-10.55,8.84.06,13.66,3.56,13.66,11.48Zm-8-7.52h-4.42c-6,0-8.64,1.78-8.64,5.61,0,2.77,1.84,5,5.47,5,6.73,0,7.59-4.62,7.59-9.63Z"/><path class="cls-2" d="M163.84,21.17c0-3.83,0-6.67-.06-9.17h8.05c.13.79.2,4,.2,6.27,1.58-4.1,5.34-7,11.08-7.06v7.91C176.25,19.06,172,21.5,172,30.54V45.92h-8.19Z"/><path class="cls-2" d="M193.08,30.67c0,5.08,2.57,9.51,7.65,9.51,4.36,0,5.75-2,6.67-4.16h8.25c-1.25,4.22-5,10.69-15.18,10.69-10.95,0-15.64-8.45-15.64-17.29,0-10.49,5.34-18.21,16-18.21,11.41,0,15.24,8.51,15.24,16.56a20.71,20.71,0,0,1-.13,2.9Zm14.78-5.21c-.06-4.55-2-8.25-7.06-8.25s-7.06,3.43-7.52,8.25Z"/><path class="cls-2" d="M1.82,102H7.23V92.56h8.18V102h6.93v6.27H15.41v17.81c0,2.84.79,4,3.7,4a16.19,16.19,0,0,0,2.44-.13v5.74a19.93,19.93,0,0,1-5.94.66c-6.14,0-8.38-3.3-8.38-9.11v-19H1.82Z"/><path class="cls-2" d="M34.62,87.68v18.67c1.58-2.51,4.42-5.14,10-5.14,6,0,11.35,3.49,11.35,13v21.71H47.88V115.46c0-4.88-1.85-7.52-6.14-7.52-5.54,0-7.12,4-7.12,9.76v18.22H26.43V87.68Z"/><path class="cls-2" d="M69.13,120.67c0,5.08,2.58,9.51,7.66,9.51,4.35,0,5.74-2,6.66-4.16H91.7c-1.25,4.22-5,10.69-15.18,10.69-11,0-15.64-8.45-15.64-17.29,0-10.49,5.35-18.21,16-18.21,11.42,0,15.25,8.51,15.25,16.56a19.24,19.24,0,0,1-.14,2.9Zm14.79-5.21c-.07-4.55-2-8.25-7.07-8.25s-7.06,3.43-7.52,8.25Z"/><path class="cls-2" d="M111.17,110.71c0-2.91,0-5.88-.06-8.71H119c.13.85.27,3,.33,4.42a10.48,10.48,0,0,1,9.57-5.21c4.82,0,7.72,2.5,9,5.47,1.91-2.9,4.95-5.47,10.56-5.47,5.8,0,10.75,3.49,10.75,12.47v22.24H151.1V114.67c0-3.37-1.19-6.8-5.54-6.8s-6.34,3.17-6.34,8.65v19.4h-8.05v-21c0-3.76-1-7-5.41-7s-6.47,3-6.47,9.1v18.88h-8.12Z"/><path class="cls-2" d="M193.34,127.6a69.91,69.91,0,0,0,.46,8.32H186a17.57,17.57,0,0,1-.53-3.7c-1.19,2.05-3.63,4.49-9.83,4.49-8.12,0-11.55-5.35-11.55-10.56,0-7.65,6.14-11.22,16.1-11.22h5.15v-2.31c0-2.64-.86-5.41-5.94-5.41-4.49,0-5.41,2.05-5.87,4.55h-7.86c.47-5.54,4-10.62,14.06-10.55,8.84.06,13.66,3.56,13.66,11.48Zm-8-7.52h-4.42c-6,0-8.65,1.78-8.65,5.61,0,2.77,1.85,5,5.48,5,6.73,0,7.59-4.62,7.59-9.63Z"/><path class="cls-2" d="M200.41,95.66v-8h8.18v8Zm0,6.34h8.18v33.92h-8.18Z"/><path class="cls-2" d="M215.65,110.51c0-2.9,0-5.94-.06-8.51h7.91a36.11,36.11,0,0,1,.34,4.75c1.18-2.38,4-5.54,10.09-5.54,6.67,0,11.29,4.35,11.29,13.06v21.65H237V115.2c0-4.23-1.51-7.26-6-7.26-4.82,0-7.19,3.1-7.19,9.37v18.61h-8.19Z"/><path class="cls-2" d="M34,215.16c-1.25,5.68-5.21,11.55-14.84,11.55-10.17,0-15.71-7.13-15.71-17.55,0-9.84,5.87-17.95,16.17-17.95C30.39,191.21,33.69,199,34,203H25.9c-.66-3-2.44-5.28-6.53-5.28-4.88,0-7.59,4.22-7.59,11.15,0,7.39,2.77,11.35,7.52,11.35,3.57,0,5.55-2,6.54-5.08Z"/><path class="cls-2" d="M46.43,177.68v18.67c1.58-2.51,4.42-5.14,10-5.14,6,0,11.35,3.49,11.35,13v21.71H59.69V205.46c0-4.88-1.84-7.52-6.13-7.52-5.55,0-7.13,4-7.13,9.76v18.22H38.25V177.68Z"/><path class="cls-2" d="M102,217.6a67.78,67.78,0,0,0,.46,8.32H94.61a16.93,16.93,0,0,1-.53-3.7c-1.19,2.05-3.63,4.49-9.83,4.49-8.12,0-11.55-5.35-11.55-10.56,0-7.65,6.14-11.22,16.1-11.22H94v-2.31c0-2.64-.86-5.41-5.94-5.41-4.49,0-5.41,2-5.87,4.55H74.28c.46-5.54,4-10.62,14.06-10.55,8.84.06,13.66,3.56,13.66,11.48Zm-8-7.52H89.59c-6,0-8.64,1.78-8.64,5.61,0,2.77,1.85,5,5.48,5,6.73,0,7.58-4.62,7.58-9.63Z"/><path class="cls-2" d="M109.06,201.17c0-3.83,0-6.67-.06-9.17h8c.13.79.2,4,.2,6.27,1.58-4.1,5.34-7,11.08-7.06v7.91c-6.86-.06-11.08,2.38-11.08,11.42v15.38h-8.19Z"/><path class="cls-2" d="M159.35,217.6a67.23,67.23,0,0,0,.47,8.32H152a17.57,17.57,0,0,1-.53-3.7c-1.18,2.05-3.63,4.49-9.83,4.49-8.12,0-11.55-5.35-11.55-10.56,0-7.65,6.14-11.22,16.1-11.22h5.15v-2.31c0-2.64-.86-5.41-5.94-5.41-4.49,0-5.41,2-5.87,4.55h-7.85c.46-5.54,4-10.62,14.05-10.55,8.85.06,13.66,3.56,13.66,11.48Zm-8-7.52H147c-6,0-8.65,1.78-8.65,5.61,0,2.77,1.85,5,5.48,5,6.73,0,7.59-4.62,7.59-9.63Z"/><path class="cls-2" d="M194.93,215.16c-1.26,5.68-5.22,11.55-14.85,11.55-10.16,0-15.71-7.13-15.71-17.55,0-9.84,5.88-17.95,16.17-17.95,10.82,0,14.12,7.78,14.39,11.81h-8.05c-.66-3-2.45-5.28-6.54-5.28-4.88,0-7.59,4.22-7.59,11.15,0,7.39,2.77,11.35,7.53,11.35,3.56,0,5.54-2,6.53-5.08Z"/><path class="cls-2" d="M195.59,192H201v-9.44h8.18V192h6.93v6.27h-6.93v17.81c0,2.84.8,4,3.7,4a16.19,16.19,0,0,0,2.44-.13v5.74a19.89,19.89,0,0,1-5.94.66c-6.14,0-8.38-3.3-8.38-9.11v-19h-5.41Z"/><path class="cls-2" d="M226.34,210.67c0,5.08,2.58,9.51,7.66,9.51,4.36,0,5.74-2,6.66-4.16h8.25c-1.25,4.22-4.95,10.69-15.17,10.69-11,0-15.65-8.45-15.65-17.29,0-10.49,5.35-18.21,16-18.21,11.42,0,15.25,8.51,15.25,16.56a19.24,19.24,0,0,1-.14,2.9Zm14.79-5.21c-.07-4.55-2-8.25-7.06-8.25s-7.07,3.43-7.53,8.25Z"/><path class="cls-2" d="M254.13,201.17c0-3.83,0-6.67-.07-9.17h8.06c.13.79.19,4,.19,6.27,1.59-4.1,5.35-7,11.09-7.06v7.91c-6.86-.06-11.09,2.38-11.09,11.42v15.38h-8.18Z"/><path class="cls-2" d="M32.63,307.6a67.23,67.23,0,0,0,.47,8.32H25.24a17.57,17.57,0,0,1-.53-3.7c-1.18,2-3.62,4.49-9.83,4.49-8.12,0-11.55-5.35-11.55-10.56,0-7.65,6.14-11.22,16.11-11.22h5.14v-2.31c0-2.64-.85-5.41-5.94-5.41-4.48,0-5.41,2.05-5.87,4.55H4.92c.46-5.54,4-10.62,14.05-10.55,8.85.06,13.66,3.56,13.66,11.48Zm-8-7.52H20.23c-6,0-8.65,1.78-8.65,5.61,0,2.77,1.85,5,5.48,5,6.73,0,7.59-4.62,7.59-9.63Z"/><path class="cls-2" d="M39.76,290.51c0-2.9,0-5.94-.06-8.51h7.92a36.15,36.15,0,0,1,.33,4.75c1.19-2.38,4-5.54,10.1-5.54,6.66,0,11.28,4.35,11.28,13.06v21.65H61.15V295.2c0-4.23-1.52-7.26-6-7.26-4.82,0-7.19,3.1-7.19,9.37v18.61H39.76Z"/><path class="cls-2" d="M106.42,267.68v38.8c0,3.17,0,6.27.07,9.44H98.57c-.13-1-.33-3-.33-4-1.65,3-4.75,4.75-10,4.75-8.58,0-14.06-6.93-14.06-17.42S80,281.21,89.53,281.21c5.21,0,7.85,2,8.71,3.62V267.68ZM90.52,310c6.93,0,8-5.54,8-11.28,0-6.4-1-10.89-7.72-10.89-5.28,0-8.18,4.16-8.18,11.15S85.63,310,90.52,310Z"/><path class="cls-2" d="M1.82,372H7.23v-9.44h8.18V372h6.93v6.27H15.41v17.81c0,2.84.79,4,3.7,4a16.19,16.19,0,0,0,2.44-.13v5.74a19.93,19.93,0,0,1-5.94.66c-6.14,0-8.38-3.3-8.38-9.11v-19H1.82Z"/><path class="cls-2" d="M34.62,357.68v18.67c1.58-2.51,4.42-5.14,10-5.14,6,0,11.35,3.49,11.35,13v21.71H47.88V385.46c0-4.88-1.85-7.52-6.14-7.52-5.54,0-7.12,4-7.12,9.76v18.22H26.43V357.68Z"/><path class="cls-2" d="M69.13,390.67c0,5.08,2.58,9.51,7.66,9.51,4.35,0,5.74-2,6.66-4.16H91.7c-1.25,4.22-5,10.69-15.18,10.69-11,0-15.64-8.45-15.64-17.29,0-10.49,5.35-18.21,16-18.21,11.42,0,15.25,8.51,15.25,16.56a19.24,19.24,0,0,1-.14,2.9Zm14.79-5.21c-.07-4.55-2-8.25-7.07-8.25s-7.06,3.43-7.52,8.25Z"/><path class="cls-2" d="M138.36,397.6a67.23,67.23,0,0,0,.47,8.32H131a17.57,17.57,0,0,1-.53-3.7c-1.18,2-3.62,4.49-9.83,4.49-8.12,0-11.55-5.35-11.55-10.56,0-7.65,6.14-11.22,16.11-11.22h5.14v-2.31c0-2.64-.85-5.41-5.94-5.41-4.48,0-5.41,2.05-5.87,4.55h-7.85c.46-5.54,4-10.62,14-10.55,8.85.06,13.66,3.56,13.66,11.48Zm-8-7.52H126c-6,0-8.65,1.78-8.65,5.61,0,2.77,1.85,5,5.48,5,6.73,0,7.59-4.62,7.59-9.63Z"/><path class="cls-2" d="M145.43,381.17c0-3.83,0-6.67-.07-9.17h8c.14.79.2,4,.2,6.27,1.59-4.1,5.35-7,11.09-7.06v7.91c-6.86-.06-11.09,2.38-11.09,11.42v15.38h-8.18Z"/><path class="cls-2" d="M168.53,365.66v-8h8.18v8Zm0,6.34h8.18v33.92h-8.18Z"/><path class="cls-2" d="M180.08,372h5.41v-9.44h8.18V372h6.93v6.27h-6.93v17.81c0,2.84.79,4,3.7,4a16.19,16.19,0,0,0,2.44-.13v5.74a19.93,19.93,0,0,1-5.94.66c-6.14,0-8.38-3.3-8.38-9.11v-19h-5.41Z"/><path class="cls-2" d="M204.69,365.66v-8h8.19v8Zm0,6.34h8.19v33.92h-8.19Z"/><path class="cls-2" d="M225.42,395.89c.79,3,3.17,4.75,7.06,4.75s5.48-1.52,5.48-3.9c0-2.57-1.52-3.62-6.87-4.94-10.62-2.58-12.47-5.88-12.47-10.56,0-4.95,3.5-10,13.2-10s13.33,5.41,13.66,10.09h-7.85c-.33-1.58-1.46-4.22-6.14-4.22-3.7,0-4.82,1.71-4.82,3.5s1.19,2.9,6.93,4.29c11,2.5,12.74,6.27,12.74,11.28,0,5.68-4.42,10.56-14.12,10.56s-14.06-4.82-14.85-10.82Z"/><path class="cls-2" d="M247.33,372h5.41v-9.44h8.18V372h6.93v6.27h-6.93v17.81c0,2.84.8,4,3.7,4a16.19,16.19,0,0,0,2.44-.13v5.74a19.89,19.89,0,0,1-5.94.66c-6.13,0-8.38-3.3-8.38-9.11v-19h-5.41Z"/><path class="cls-2" d="M10.92,462c3.43,14.38,5.35,22.57,6,26.53H17c.66-3.57,2.12-9.9,6.54-26.53h7.72c4.29,17.55,5.61,22.63,6.07,26.13h.07c.79-3.56,1.91-8.64,6.33-26.13H51.9L41.68,495.92H32.9c-3-12.67-5.15-21.05-5.88-25.28H27c-.6,4.09-2.84,12.67-6.14,25.28H12L2.28,462Z"/><path class="cls-2" d="M63.85,447.68v18.67c1.59-2.51,4.42-5.14,10-5.14,6,0,11.36,3.49,11.36,13v21.71H77.12V475.46c0-4.88-1.85-7.52-6.14-7.52-5.54,0-7.13,4-7.13,9.76v18.22H55.67V447.68Z"/><path class="cls-2" d="M123,478.89c0,10.1-5.94,17.82-16.57,17.82-10.29,0-16.3-7.52-16.3-17.69s6.14-17.81,16.7-17.81C116.65,461.21,123,468.27,123,478.89ZM98.44,479c0,6.86,3.1,11.22,8.18,11.22s8-4.29,8-11.16c0-7.32-2.84-11.28-8.12-11.28C101.47,467.74,98.44,471.57,98.44,479Z"/><path class="cls-2" d="M142.13,509.05V470.18c0-2.71,0-5.48-.07-8.18H150a41.13,41.13,0,0,1,.33,4.62c1.59-2.84,4.75-5.41,10.23-5.41,7.72,0,13.53,6.46,13.53,16.89,0,12-6.53,18.61-14.78,18.61-5,0-7.66-2-9-4.22v16.56ZM158,467.87c-5.87,0-8.11,3.76-8.11,11.09,0,7,2,11.15,7.72,11.15,5.34,0,8.11-4.29,8.11-11.68C165.75,471.9,163,467.87,158,467.87Z"/><path class="cls-2" d="M206.15,487.6a67.78,67.78,0,0,0,.46,8.32h-7.86a17,17,0,0,1-.52-3.7c-1.19,2-3.63,4.49-9.84,4.49-8.11,0-11.55-5.35-11.55-10.56,0-7.65,6.14-11.22,16.11-11.22h5.14v-2.31c0-2.64-.85-5.41-5.93-5.41-4.49,0-5.42,2.05-5.88,4.55h-7.85c.46-5.54,4-10.62,14.06-10.55,8.84.06,13.66,3.56,13.66,11.48Zm-8-7.52h-4.42c-6,0-8.65,1.78-8.65,5.61,0,2.77,1.85,5,5.48,5,6.73,0,7.59-4.62,7.59-9.63Z"/><path class="cls-2" d="M213.21,455.66v-8h8.18v8Zm0,6.34h8.18v33.92h-8.18Z"/><path class="cls-2" d="M228.46,470.51c0-2.9,0-5.94-.07-8.51h7.92a36.15,36.15,0,0,1,.33,4.75c1.19-2.38,4-5.54,10.1-5.54,6.66,0,11.28,4.35,11.28,13.06v21.65h-8.18V475.2c0-4.23-1.52-7.26-6-7.26-4.81,0-7.19,3.1-7.19,9.37v18.61h-8.18Z"/><path class="cls-2" d="M261.32,462h5.42v-9.44h8.18V462h6.93v6.27h-6.93v17.81c0,2.84.79,4,3.69,4a16.38,16.38,0,0,0,2.45-.13v5.74a20,20,0,0,1-5.94.66c-6.14,0-8.38-3.3-8.38-9.11v-19h-5.42Z"/><path class="cls-2" d="M291.48,485.89c.8,3,3.17,4.75,7.07,4.75s5.47-1.52,5.47-3.9c0-2.57-1.51-3.62-6.86-4.94-10.62-2.58-12.47-5.88-12.47-10.56,0-4.95,3.5-10,13.2-10s13.33,5.41,13.66,10.09h-7.86c-.33-1.58-1.45-4.22-6.13-4.22-3.7,0-4.82,1.71-4.82,3.5s1.19,2.9,6.93,4.29c10.95,2.5,12.73,6.27,12.73,11.28,0,5.68-4.42,10.56-14.12,10.56s-14-4.82-14.85-10.82Z"/><path class="cls-2" d="M10.2,552c4.22,13.26,7.26,23.16,7.92,26.46h.06c.86-3.56,3-11.22,7.53-26.46h8.18L22.21,587.11c-3.3,9.83-5.94,12.6-13.66,12.6a37.48,37.48,0,0,1-4.16-.26v-6.73c.72.06,1.71.13,2.57.13,3.7,0,5.41-1.39,6.93-5.81L1.42,552Z"/><path class="cls-2" d="M67.61,568.89c0,10.1-5.94,17.82-16.56,17.82-10.3,0-16.3-7.52-16.3-17.69s6.14-17.81,16.7-17.81C61.28,551.21,67.61,558.27,67.61,568.89ZM43.06,569c0,6.86,3.11,11.22,8.19,11.22s8-4.29,8-11.16c0-7.32-2.83-11.28-8.11-11.28C46.1,557.74,43.06,561.57,43.06,569Z"/><path class="cls-2" d="M101.47,576c0,3.3,0,7.19.07,9.9h-8c-.13-.93-.2-2.84-.26-4.29-1.92,3.5-5,5.08-9.64,5.08-6.53,0-11.28-3.76-11.28-12.54V552h8.18v20.52c0,4,1.19,7.39,5.81,7.39,5,0,6.93-2.7,6.93-10V552h8.18Z"/><path class="cls-2" d="M108.47,561.17c0-3.83,0-6.67-.07-9.17h8.06c.13.79.19,4,.19,6.27,1.59-4.1,5.35-7,11.09-7.06v7.91c-6.86-.06-11.09,2.38-11.09,11.42v15.38h-8.18Z"/><path class="cls-2" d="M151.3,552c3.43,14.38,5.35,22.57,6,26.53h.06c.66-3.57,2.12-9.9,6.54-26.53h7.72c4.29,17.55,5.61,22.63,6.07,26.13h.07c.79-3.56,1.91-8.64,6.33-26.13h8.18l-10.22,33.92h-8.78c-3-12.67-5.15-21-5.88-25.28h-.06c-.6,4.09-2.84,12.67-6.14,25.28h-8.84L142.66,552Z"/><path class="cls-2" d="M226.8,568.89c0,10.1-5.94,17.82-16.56,17.82-10.3,0-16.3-7.52-16.3-17.69s6.14-17.81,16.69-17.81C220.47,551.21,226.8,558.27,226.8,568.89Zm-24.55.07c0,6.86,3.11,11.22,8.19,11.22s8-4.29,8-11.16c0-7.32-2.84-11.28-8.12-11.28C205.29,557.74,202.25,561.57,202.25,569Z"/><path class="cls-2" d="M231.69,561.17c0-3.83,0-6.67-.07-9.17h8c.14.79.2,4,.2,6.27,1.59-4.1,5.35-7,11.09-7.06v7.91c-6.86-.06-11.09,2.38-11.09,11.42v15.38h-8.18Z"/><path class="cls-2" d="M263,566.91c2.64-3.36,8.12-9.5,12.8-14.91h9.51l-12.15,12.93,13.34,21h-9.38l-9.5-15.71L263,574.63v11.29h-8.18V537.68H263Z"/><path class="cls-2" d="M287.26,585.92V575H296v11Z"/></g></g></g></svg>