<svg xmlns="http://www.w3.org/2000/svg" viewBox="0 0 993.34 1539.72"><defs><style>.cls-1{opacity:0.4;}.cls-2{fill:none;stroke:#fff;stroke-width:0.5px;}</style></defs><g id="レイヤー_2" data-name="レイヤー 2"><g id="レイヤー_2-2" data-name="レイヤー 2"><g class="cls-1"><path class="cls-2" d="M52.09,145.57V93.49a8.82,8.82,0,0,0-1.26-4.41L.43.25H31.3c12,22.47,28.77,54.6,35.7,69.3C73.3,55.27,91.15,22.3,103.12.25h28.77L80.44,89.08c-.63.84-1,1.68-1,4.2v52.29Z"/><path class="cls-2" d="M236.05,91.39c0,32.13-18.9,56.7-52.71,56.7-32.76,0-51.87-23.94-51.87-56.28,0-32.76,19.53-56.7,53.13-56.7C215.89,35.11,236.05,57.58,236.05,91.39Zm-78.12.21c0,21.84,9.87,35.7,26,35.7,16.38,0,25.41-13.65,25.41-35.49,0-23.31-9-35.91-25.83-35.91C167.59,55.9,157.93,68.08,157.93,91.6Z"/><path class="cls-2" d="M343.78,114.07c0,10.5,0,22.89.21,31.5H318.58c-.42-2.94-.63-9-.84-13.65-6.09,11.13-16,16.17-30.66,16.17-20.79,0-35.92-12-35.92-39.9V37.63h26v65.31c0,12.6,3.78,23.52,18.48,23.52,15.75,0,22.05-8.61,22.05-31.71V37.63h26Z"/><path class="cls-2" d="M497.91,119.11c0,10.08.84,23.73,1.47,26.46h-25c-.84-2.31-1.47-7.77-1.68-11.76-3.78,6.51-11.55,14.28-31.29,14.28-25.83,0-36.75-17-36.75-33.6,0-24.36,19.53-35.7,51.24-35.7h16.38V71.44c0-8.4-2.73-17.22-18.9-17.22-14.28,0-17.22,6.51-18.69,14.49h-25c1.47-17.64,12.6-33.81,44.73-33.6,28.14.21,43.47,11.34,43.47,36.54ZM472.5,95.17H458.43c-19.11,0-27.51,5.67-27.51,17.85,0,8.82,5.88,16,17.43,16,21.42,0,24.15-14.7,24.15-30.66Z"/><path class="cls-2" d="M520.38,66.82c0-12.18,0-21.21-.21-29.19h25.62c.42,2.52.63,12.6.63,19.95,5-13,17-22.26,35.28-22.47v25.2c-21.84-.21-35.28,7.56-35.28,36.33v48.93h-26Z"/><path class="cls-2" d="M613.41,97.06c0,16.17,8.19,30.24,24.36,30.24,13.86,0,18.27-6.3,21.21-13.23h26.25c-4,13.44-15.75,34-48.3,34-34.86,0-49.77-26.88-49.77-55,0-33.39,17-58,51-58,36.33,0,48.51,27.09,48.51,52.71a65,65,0,0,1-.42,9.24Zm47-16.59C660.24,66,653.94,54.22,638,54.22S615.51,65.14,614,80.47Z"/><path class="cls-2" d="M4.84,262.63H22.06v-30h26v30H70.15v19.95H48.1v56.7c0,9,2.52,12.81,11.76,12.81a50.86,50.86,0,0,0,7.77-.42v18.27c-5.46,1.89-13,2.1-18.9,2.1-19.53,0-26.67-10.5-26.67-29V282.58H4.84Z"/><path class="cls-2" d="M109.21,217.06v59.43c5-8,14.07-16.38,31.92-16.38,19.11,0,36.12,11.13,36.12,41.37v69.09H151.42v-65.1c0-15.54-5.88-23.94-19.53-23.94-17.64,0-22.68,12.6-22.68,31.08v58h-26V217.06Z"/><path class="cls-2" d="M219,322.06c0,16.17,8.19,30.24,24.36,30.24,13.86,0,18.27-6.3,21.21-13.23h26.25c-4,13.44-15.75,34-48.3,34-34.86,0-49.77-26.88-49.77-55,0-33.39,17-58,51-58,36.33,0,48.51,27.09,48.51,52.71a65,65,0,0,1-.42,9.24Zm47-16.59c-.21-14.49-6.51-26.25-22.47-26.25s-22.47,10.92-23.94,26.25Z"/><path class="cls-2" d="M352.8,290.35c0-9.24,0-18.69-.21-27.72h25c.42,2.73.84,9.45,1.05,14.07,5.25-8.61,14.28-16.59,30.46-16.59,15.33,0,24.57,8,28.56,17.43,6.09-9.24,15.75-17.43,33.6-17.43,18.48,0,34.23,11.13,34.23,39.69v70.77H479.86V303c0-10.71-3.78-21.63-17.64-21.63-14.28,0-20.16,10.08-20.16,27.51v61.74H416.44V303.79c0-12-3.15-22.26-17.23-22.26s-20.58,9.66-20.58,29v60.06H352.8Z"/><path class="cls-2" d="M614.25,344.11c0,10.08.84,23.73,1.47,26.46h-25c-.84-2.31-1.47-7.77-1.68-11.76-3.78,6.51-11.55,14.28-31.29,14.28-25.83,0-36.75-17-36.75-33.6,0-24.36,19.53-35.7,51.24-35.7h16.38v-7.35c0-8.4-2.73-17.22-18.9-17.22-14.28,0-17.22,6.51-18.69,14.49h-25c1.47-17.64,12.6-33.81,44.73-33.6,28.14.21,43.47,11.34,43.47,36.54Zm-25.41-23.94H574.77c-19.11,0-27.51,5.67-27.51,17.85,0,8.82,5.88,16,17.43,16,21.42,0,24.15-14.7,24.15-30.66Z"/><path class="cls-2" d="M636.72,242.47V217.06h26v25.41Zm0,20.16h26V370.57h-26Z"/><path class="cls-2" d="M685.23,289.72c0-9.24,0-18.9-.21-27.09h25.2c.63,2.94,1,11.76,1,15.12,3.78-7.56,12.6-17.64,32.13-17.64,21.21,0,35.91,13.86,35.91,41.58v68.88h-26V304.63c0-13.44-4.83-23.1-19.11-23.1-15.33,0-22.89,9.87-22.89,29.82v59.22h-26Z"/><path class="cls-2" d="M107.11,561.34c-4,18.06-16.59,36.75-47.25,36.75-32.34,0-50-22.68-50-55.86,0-31.29,18.69-57.12,51.45-57.12,34.44,0,44.94,24.78,45.78,37.59H81.49c-2.1-9.66-7.77-16.8-20.79-16.8-15.54,0-24.15,13.44-24.15,35.49,0,23.52,8.82,36.12,23.94,36.12,11.34,0,17.64-6.51,20.79-16.17Z"/><path class="cls-2" d="M146.8,442.06v59.43c5-8,14.07-16.38,31.92-16.38,19.11,0,36.12,11.13,36.12,41.37v69.09H189v-65.1c0-15.54-5.88-23.94-19.53-23.94-17.64,0-22.68,12.6-22.68,31.08v58h-26V442.06Z"/><path class="cls-2" d="M323.62,569.11c0,10.08.84,23.73,1.47,26.46h-25c-.84-2.31-1.47-7.77-1.68-11.76-3.78,6.51-11.55,14.28-31.29,14.28-25.83,0-36.75-17-36.75-33.6,0-24.36,19.53-35.7,51.24-35.7H298v-7.35c0-8.4-2.73-17.22-18.9-17.22-14.28,0-17.22,6.51-18.69,14.49h-25c1.47-17.64,12.6-33.81,44.73-33.6,28.14.21,43.47,11.34,43.47,36.54Zm-25.41-23.94H284.14c-19.11,0-27.51,5.67-27.51,17.85,0,8.82,5.88,16,17.43,16,21.42,0,24.15-14.7,24.15-30.66Z"/><path class="cls-2" d="M346.09,516.82c0-12.18,0-21.21-.21-29.19H371.5c.42,2.52.63,12.6.63,19.95,5-13,17-22.26,35.28-22.47v25.2c-21.84-.21-35.28,7.56-35.28,36.33v48.93h-26Z"/><path class="cls-2" d="M506.11,569.11c0,10.08.84,23.73,1.47,26.46h-25c-.84-2.31-1.47-7.77-1.68-11.76-3.78,6.51-11.55,14.28-31.29,14.28-25.83,0-36.76-17-36.76-33.6,0-24.36,19.54-35.7,51.25-35.7h16.38v-7.35c0-8.4-2.73-17.22-18.9-17.22-14.28,0-17.22,6.51-18.69,14.49h-25c1.47-17.64,12.6-33.81,44.73-33.6,28.14.21,43.47,11.34,43.47,36.54ZM480.7,545.17H466.63c-19.11,0-27.51,5.67-27.51,17.85,0,8.82,5.88,16,17.43,16,21.42,0,24.15-14.7,24.15-30.66Z"/><path class="cls-2" d="M619.3,561.34c-4,18.06-16.59,36.75-47.25,36.75-32.35,0-50-22.68-50-55.86,0-31.29,18.69-57.12,51.46-57.12,34.44,0,44.94,24.78,45.78,37.59H593.68c-2.1-9.66-7.77-16.8-20.79-16.8-15.54,0-24.16,13.44-24.16,35.49,0,23.52,8.83,36.12,23.95,36.12,11.34,0,17.64-6.51,20.79-16.17Z"/><path class="cls-2" d="M621.39,487.63h17.22v-30h26v30H686.7v19.95H664.65v56.7c0,9,2.52,12.81,11.76,12.81a50.86,50.86,0,0,0,7.77-.42v18.27c-5.46,1.89-13,2.1-18.9,2.1-19.53,0-26.67-10.5-26.67-29V507.58H621.39Z"/><path class="cls-2" d="M719.25,547.06c0,16.17,8.19,30.24,24.36,30.24,13.86,0,18.27-6.3,21.21-13.23h26.25c-4,13.44-15.75,34-48.3,34-34.86,0-49.77-26.88-49.77-55,0-33.39,17-58,51-58,36.33,0,48.51,27.09,48.51,52.71a65,65,0,0,1-.42,9.24Zm47-16.59c-.21-14.49-6.51-26.25-22.47-26.25s-22.47,10.92-23.94,26.25Z"/><path class="cls-2" d="M807.66,516.82c0-12.18,0-21.21-.21-29.19h25.62c.42,2.52.63,12.6.63,19.95,5-13,17-22.26,35.28-22.47v25.2c-21.84-.21-35.28,7.56-35.28,36.33v48.93h-26Z"/><path class="cls-2" d="M102.91,794.11c0,10.08.84,23.73,1.47,26.46h-25c-.84-2.31-1.47-7.77-1.68-11.76-3.78,6.51-11.55,14.28-31.29,14.28-25.83,0-36.75-17-36.75-33.6,0-24.36,19.53-35.7,51.24-35.7H77.29v-7.35c0-8.4-2.73-17.22-18.9-17.22-14.28,0-17.22,6.51-18.69,14.49h-25c1.47-17.64,12.6-33.81,44.73-33.6,28.14.21,43.47,11.34,43.47,36.54ZM77.5,770.17H63.43c-19.11,0-27.51,5.67-27.51,17.85,0,8.82,5.88,16,17.43,16,21.42,0,24.15-14.7,24.15-30.66Z"/><path class="cls-2" d="M125.59,739.72c0-9.24,0-18.9-.21-27.09h25.2c.63,2.94,1,11.76,1,15.12,3.78-7.56,12.6-17.64,32.13-17.64,21.21,0,35.91,13.86,35.91,41.58v68.88h-26V754.63c0-13.44-4.83-23.1-19.11-23.1-15.33,0-22.89,9.87-22.89,29.82v59.22h-26Z"/><path class="cls-2" d="M337.69,667.06V790.54c0,10.08,0,20,.21,30H312.7c-.42-3.15-1.05-9.66-1.05-12.6-5.25,9.45-15.12,15.12-31.92,15.12-27.3,0-44.73-22.05-44.73-55.44s18.48-57.54,48.93-57.54c16.59,0,25,6.3,27.72,11.55v-54.6ZM287.08,801.88c22.05,0,25.41-17.64,25.41-35.91,0-20.37-3.36-34.65-24.57-34.65-16.8,0-26,13.23-26,35.49C261.88,789.49,271.54,801.88,287.08,801.88Z"/><path class="cls-2" d="M4.84,937.63H22.06v-30h26v30H70.15v20H48.1v56.7c0,9,2.52,12.81,11.76,12.81a50.86,50.86,0,0,0,7.77-.42v18.27c-5.46,1.89-13,2.11-18.9,2.11-19.53,0-26.67-10.51-26.67-29V957.58H4.84Z"/><path class="cls-2" d="M109.21,892.06v59.43c5-8,14.07-16.38,31.92-16.38,19.11,0,36.12,11.13,36.12,41.37v69.09H151.42v-65.1c0-15.54-5.88-23.94-19.53-23.94-17.64,0-22.68,12.6-22.68,31.08v58h-26V892.06Z"/><path class="cls-2" d="M219,997.06c0,16.17,8.19,30.24,24.36,30.24,13.86,0,18.27-6.3,21.21-13.23h26.25c-4,13.44-15.75,34-48.3,34-34.86,0-49.77-26.88-49.77-55,0-33.39,17-58,51-58,36.33,0,48.51,27.09,48.51,52.71a65,65,0,0,1-.42,9.24Zm47-16.59c-.21-14.49-6.51-26.25-22.47-26.25s-22.47,10.92-23.94,26.25Z"/><path class="cls-2" d="M439.33,1019.11c0,10.08.84,23.73,1.47,26.46h-25c-.84-2.31-1.47-7.76-1.68-11.76-3.78,6.51-11.55,14.28-31.3,14.28-25.83,0-36.75-17-36.75-33.6,0-24.36,19.53-35.7,51.24-35.7h16.39v-7.35c0-8.4-2.73-17.22-18.91-17.22-14.28,0-17.22,6.51-18.69,14.49h-25c1.47-17.64,12.6-33.81,44.74-33.6,28.14.21,43.47,11.34,43.47,36.54Zm-25.41-23.94H399.84c-19.11,0-27.51,5.67-27.51,17.85,0,8.82,5.88,16,17.43,16,21.43,0,24.16-14.7,24.16-30.66Z"/><path class="cls-2" d="M461.79,966.82c0-12.18,0-21.21-.21-29.19H487.2c.42,2.52.63,12.6.63,20,5-13,17-22.26,35.28-22.47v25.2c-21.84-.21-35.28,7.56-35.28,36.33v48.93h-26Z"/><path class="cls-2" d="M535.29,917.47V892.06h26v25.41Zm0,20.16h26v107.94h-26Z"/><path class="cls-2" d="M572,937.63h17.22v-30h26v30h22.05v20H615.3v56.7c0,9,2.52,12.81,11.76,12.81a50.86,50.86,0,0,0,7.77-.42v18.27c-5.46,1.89-13,2.11-18.9,2.11-19.53,0-26.67-10.51-26.67-29V957.58H572Z"/><path class="cls-2" d="M650.37,917.47V892.06h26v25.41Zm0,20.16h26v107.94h-26Z"/><path class="cls-2" d="M716.31,1013.65c2.52,9.66,10.08,15.12,22.47,15.12,12.6,0,17.43-4.83,17.43-12.39,0-8.19-4.83-11.55-21.84-15.75-33.81-8.19-39.69-18.69-39.69-33.6,0-15.75,11.13-31.92,42-31.92,31.08,0,42.42,17.22,43.47,32.13h-25c-1-5-4.62-13.44-19.53-13.44-11.76,0-15.33,5.46-15.33,11.13,0,6.09,3.78,9.24,22.05,13.65,34.86,8,40.53,19.95,40.53,35.91,0,18.06-14.07,33.6-44.94,33.6-31.29,0-44.73-15.33-47.25-34.44Z"/><path class="cls-2" d="M786,937.63h17.22v-30h26v30h22.05v20H829.29v56.7c0,9,2.52,12.81,11.76,12.81a50.86,50.86,0,0,0,7.77-.42v18.27c-5.46,1.89-13,2.11-18.9,2.11-19.54,0-26.68-10.51-26.68-29V957.58H786Z"/><path class="cls-2" d="M33.82,1162.63c10.92,45.78,17,71.82,19.11,84.42h.21c2.1-11.34,6.72-31.5,20.79-84.42H98.5c13.65,55.86,17.85,72,19.32,83.16H118c2.52-11.34,6.09-27.51,20.16-83.16h26l-32.55,107.94H103.75c-9.45-40.32-16.38-67-18.69-80.43h-.21c-1.89,13-9,40.32-19.53,80.43H37.18L6.31,1162.63Z"/><path class="cls-2" d="M202.24,1117.06v59.43c5-8,14.07-16.38,31.92-16.38,19.11,0,36.12,11.13,36.12,41.37v69.09H244.45v-65.1c0-15.54-5.88-23.94-19.53-23.94-17.64,0-22.68,12.6-22.68,31.08v58h-26V1117.06Z"/><path class="cls-2" d="M390.4,1216.39c0,32.13-18.9,56.7-52.71,56.7-32.76,0-51.87-23.94-51.87-56.28,0-32.76,19.53-56.7,53.13-56.7C370.24,1160.11,390.4,1182.58,390.4,1216.39Zm-78.12.21c0,21.84,9.87,35.7,26,35.7,16.38,0,25.41-13.65,25.41-35.49,0-23.31-9-35.91-25.83-35.91C321.94,1180.9,312.28,1193.08,312.28,1216.6Z"/><path class="cls-2" d="M451.29,1312.37v-123.7c0-8.61,0-17.43-.21-26h25.2a129.72,129.72,0,0,1,1.05,14.7c5-9,15.12-17.22,32.55-17.22,24.58,0,43.06,20.58,43.06,53.76,0,38.22-20.8,59.22-47.05,59.22-16,0-24.36-6.3-28.56-13.44v52.72Zm50.61-131c-18.69,0-25.83,12-25.83,35.28,0,22.26,6.3,35.49,24.57,35.49,17,0,25.83-13.65,25.83-37.17C526.47,1194.13,517.65,1181.32,501.9,1181.32Z"/><path class="cls-2" d="M655,1244.11c0,10.08.84,23.73,1.47,26.46h-25c-.84-2.31-1.47-7.76-1.68-11.76-3.78,6.51-11.55,14.28-31.29,14.28-25.83,0-36.75-17-36.75-33.6,0-24.36,19.53-35.7,51.24-35.7h16.38v-7.35c0-8.4-2.73-17.22-18.9-17.22-14.28,0-17.22,6.51-18.69,14.49h-25c1.47-17.64,12.6-33.81,44.73-33.6,28.14.21,43.47,11.34,43.47,36.54Zm-25.41-23.94H615.51c-19.11,0-27.51,5.67-27.51,17.85,0,8.82,5.88,16,17.43,16,21.42,0,24.15-14.7,24.15-30.66Z"/><path class="cls-2" d="M677.46,1142.47v-25.41h26v25.41Zm0,20.16h26v107.94h-26Z"/><path class="cls-2" d="M726,1189.72c0-9.24,0-18.9-.21-27.09H751c.63,2.94,1,11.76,1,15.12,3.78-7.56,12.6-17.64,32.13-17.64,21.21,0,35.91,13.86,35.91,41.58v68.88H794v-65.94c0-13.44-4.83-23.1-19.11-23.1-15.33,0-22.89,9.87-22.89,29.82v59.22H726Z"/><path class="cls-2" d="M830.55,1162.63h17.22v-30h26v30h22.05v19.95H873.81v56.7c0,9,2.52,12.81,11.76,12.81a50.86,50.86,0,0,0,7.77-.42v18.27c-5.46,1.89-13,2.11-18.9,2.11-19.53,0-26.67-10.51-26.67-29v-60.48H830.55Z"/><path class="cls-2" d="M926.52,1238.65c2.52,9.66,10.08,15.12,22.47,15.12,12.6,0,17.43-4.83,17.43-12.39,0-8.19-4.83-11.55-21.84-15.75-33.81-8.19-39.69-18.69-39.69-33.6,0-15.75,11.13-31.92,42-31.92,31.08,0,42.42,17.22,43.47,32.13h-25c-1-5-4.62-13.44-19.53-13.44-11.76,0-15.33,5.46-15.33,11.13,0,6.09,3.78,9.24,22,13.65,34.86,8,40.53,20,40.53,35.91,0,18.06-14.07,33.6-44.94,33.6-31.29,0-44.73-15.33-47.25-34.44Z"/><path class="cls-2" d="M31.51,1387.63c13.44,42.21,23.1,73.71,25.2,84.21h.21c2.73-11.34,9.45-35.7,23.94-84.21h26L69.73,1499.35c-10.5,31.3-18.9,40.12-43.47,40.12a113.82,113.82,0,0,1-13.23-.84v-21.42c2.31.21,5.46.42,8.19.42,11.76,0,17.22-4.41,22.05-18.48L3.58,1387.63Z"/><path class="cls-2" d="M214.21,1441.39c0,32.13-18.9,56.71-52.71,56.71-32.76,0-51.87-23.95-51.87-56.29,0-32.76,19.53-56.7,53.13-56.7C194.05,1385.11,214.21,1407.58,214.21,1441.39Zm-78.12.21c0,21.84,9.87,35.7,26,35.7,16.38,0,25.41-13.65,25.41-35.49,0-23.31-9-35.91-25.83-35.91C145.75,1405.9,136.09,1418.08,136.09,1441.6Z"/><path class="cls-2" d="M321.94,1464.07c0,10.5,0,22.89.21,31.5H296.74c-.42-2.94-.63-9-.84-13.65-6.09,11.13-16,16.18-30.66,16.18-20.79,0-35.91-12-35.91-39.91v-70.56h26v65.31c0,12.6,3.78,23.52,18.48,23.52,15.75,0,22-8.61,22-31.71v-57.12h26Z"/><path class="cls-2" d="M344.2,1416.82c0-12.18,0-21.21-.21-29.19h25.62c.42,2.52.63,12.6.63,19.95,5-13,17-22.26,35.28-22.47v25.2c-21.84-.21-35.28,7.56-35.28,36.33v48.93h-26Z"/><path class="cls-2" d="M480.48,1387.63c10.92,45.78,17,71.82,19.11,84.42h.21c2.1-11.34,6.72-31.5,20.79-84.42h24.57c13.66,55.86,17.86,72,19.33,83.16h.21c2.52-11.34,6.09-27.51,20.16-83.16h26l-32.55,107.94H550.41c-9.45-40.32-16.38-67-18.69-80.43h-.21c-1.89,13-9,40.32-19.53,80.43H483.84L453,1387.63Z"/><path class="cls-2" d="M720.72,1441.39c0,32.13-18.9,56.71-52.71,56.71-32.76,0-51.87-23.95-51.87-56.29,0-32.76,19.53-56.7,53.13-56.7C700.56,1385.11,720.72,1407.58,720.72,1441.39Zm-78.12.21c0,21.84,9.87,35.7,26,35.7,16.38,0,25.41-13.65,25.41-35.49,0-23.31-9-35.91-25.83-35.91C652.26,1405.9,642.6,1418.08,642.6,1441.6Z"/><path class="cls-2" d="M736.26,1416.82c0-12.18,0-21.21-.21-29.19h25.62c.42,2.52.63,12.6.63,19.95,5-13,17-22.26,35.28-22.47v25.2c-21.84-.21-35.28,7.56-35.28,36.33v48.93h-26Z"/><path class="cls-2" d="M835.8,1435.09c8.4-10.71,25.83-30.24,40.74-47.46h30.24l-38.64,41.16,42.42,66.78H880.74l-30.24-50-14.7,14.07v35.91h-26V1342.06h26Z"/><path class="cls-2" d="M913.07,1495.57v-34.86H941v34.86Z"/></g></g></g></svg>