<svg xmlns="http://www.w3.org/2000/svg" xmlns:xlink="http://www.w3.org/1999/xlink" viewBox="0 0 236.52 195.1"><defs><style>.cls-1{fill:url(#新規グラデーションスウォッチ_7);}.cls-2{fill:#232323;}</style><linearGradient id="新規グラデーションスウォッチ_7" y1="93.79" x2="236.52" y2="93.79" gradientUnits="userSpaceOnUse"><stop offset="0" stop-color="#ef2615"/><stop offset="1" stop-color="#d6003f"/></linearGradient></defs><title>アセット </title><g id="レイヤー_2" data-name="レイヤー 2"><g id="レイヤー_2-2" data-name="レイヤー 2"><path class="cls-1" d="M0,150,210.22,92.15a35.8,35.8,0,0,0,26.3-34.51v-20L0,102.66Z"/><polygon class="cls-2" points="36.11 81.52 36.11 72.22 36.11 36.11 72.22 36.11 108.33 36.11 144.45 36.11 144.45 51.73 180.56 41.8 180.56 36.11 180.56 0 144.45 0 108.33 0 72.22 0 36.11 0 0 0 0 36.11 0 72.22 0 91.45 36.11 81.52"/><polygon class="cls-2" points="171.53 113.58 171.53 122.88 171.53 158.99 135.42 158.99 99.31 158.99 67.71 158.99 63.2 158.99 63.2 143.37 27.08 153.3 27.08 158.99 27.08 195.1 63.2 195.1 67.71 195.1 99.31 195.1 135.42 195.1 171.53 195.1 207.64 195.1 207.64 158.99 207.64 122.88 207.64 103.65 171.53 113.58"/></g></g></svg>