<?xml version="1.0" encoding="utf-8"?>
<!-- Generator: Adobe Illustrator 26.3.1, SVG Export Plug-In . SVG Version: 6.00 Build 0)  -->
<svg version="1.1" id="レイヤー_1" xmlns="http://www.w3.org/2000/svg" xmlns:xlink="http://www.w3.org/1999/xlink" x="0px"
	 y="0px" viewBox="0 0 236.5 195.1" style="enable-background:new 0 0 236.5 195.1;" xml:space="preserve">
<style type="text/css">
	.st0{fill:#FFFFFF;}
</style>
<g id="レイヤー_2_00000002344322743937537490000011741941232108193929_">
	<g id="レイヤー_2-2">
		<path class="st0" d="M0,150l210.2-57.8c15.5-4.3,26.3-18.4,26.3-34.5v-20L0,102.7V150z"/>
		<polygon class="st0" points="36.1,81.5 36.1,72.2 36.1,36.1 72.2,36.1 108.3,36.1 144.4,36.1 144.4,51.7 180.6,41.8 180.6,36.1 
			180.6,0 144.4,0 108.3,0 72.2,0 36.1,0 0,0 0,36.1 0,72.2 0,91.4 		"/>
		<polygon class="st0" points="171.5,113.6 171.5,122.9 171.5,159 135.4,159 99.3,159 67.7,159 63.2,159 63.2,143.4 27.1,153.3 
			27.1,159 27.1,195.1 63.2,195.1 67.7,195.1 99.3,195.1 135.4,195.1 171.5,195.1 207.6,195.1 207.6,159 207.6,122.9 207.6,103.7 		
			"/>
	</g>
</g>
</svg>
