<svg xmlns="http://www.w3.org/2000/svg" xmlns:xlink="http://www.w3.org/1999/xlink" viewBox="0 0 1400 400"><defs><style>.cls-1{fill:url(#名称未設定グラデーション_4);}.cls-2{fill:#232323;}.cls-3{fill:url(#新規グラデーションスウォッチ_7);}.cls-4{fill:none;}</style><linearGradient id="名称未設定グラデーション_4" x1="155.23" y1="192.85" x2="353.26" y2="192.85" gradientUnits="userSpaceOnUse"><stop offset="0" stop-color="#ef2615"/><stop offset="1" stop-color="#d6003f"/></linearGradient><linearGradient id="新規グラデーションスウォッチ_7" x1="834.14" y1="209.55" x2="887.09" y2="209.55" xlink:href="#名称未設定グラデーション_4"/></defs><g id="レイヤー_2" data-name="レイヤー 2"><g id="レイヤー_2-2" data-name="レイヤー 2"><g id="type01_b"><path class="cls-1" d="M155.23,239.88l176-48.4a30,30,0,0,0,22-28.9V145.82l-198,54.46Z"/><polygon class="cls-2" points="184.96 182.58 184.96 174.79 184.96 144.56 215.19 144.56 245.43 144.56 275.66 144.56 275.66 157.64 305.9 149.32 305.9 144.56 305.9 114.32 275.66 114.32 245.43 114.32 215.19 114.32 184.96 114.32 154.72 114.32 154.72 144.56 154.72 174.79 154.72 190.9 184.96 182.58"/><polygon class="cls-2" points="298.34 209.42 298.34 217.21 298.34 247.44 268.11 247.44 237.87 247.44 211.41 247.44 207.63 247.44 207.63 234.36 177.4 242.68 177.4 247.44 177.4 277.68 207.63 277.68 211.41 277.68 237.87 277.68 268.11 277.68 298.34 277.68 328.57 277.68 328.57 247.44 328.57 217.21 328.57 201.1 298.34 209.42"/><path class="cls-2" d="M504.57,210.61a40.43,40.43,0,0,1-2.24,13.82A29.27,29.27,0,0,1,495.84,235a28.36,28.36,0,0,1-10.43,6.72,39,39,0,0,1-14.06,2.37c-2.18,0-4.46-.11-6.85-.31s-4.72-.46-7-.78-4.5-.71-6.6-1.16-4-.9-5.58-1.39v-89.1l18.06-2.9v31.75a35,35,0,0,1,6.31-2.06,32.64,32.64,0,0,1,7-.72,28.75,28.75,0,0,1,12,2.36,23.64,23.64,0,0,1,8.73,6.73A30.22,30.22,0,0,1,502.75,197,48,48,0,0,1,504.57,210.61Zm-18.43-.48q0-17.46-12.85-17.46a21,21,0,0,0-5.51.73,15.48,15.48,0,0,0-4.43,1.82v32.85c.89.16,2,.3,3.4.42s2.87.18,4.48.18q7.39,0,11.16-5.09T486.14,210.13Z"/><path class="cls-2" d="M548,243.7A45.08,45.08,0,0,1,535.24,242a18.9,18.9,0,0,1-7.76-4.43,14.69,14.69,0,0,1-3.88-6.91,37,37,0,0,1-1-9.15V151.33l18.06-2.9v69.45a23.14,23.14,0,0,0,.37,4.37,7.47,7.47,0,0,0,1.39,3.27,7.31,7.31,0,0,0,3,2.18,16.1,16.1,0,0,0,5.21,1.09Z"/><path class="cls-2" d="M596.84,177a41.92,41.92,0,0,1,13.34,1.82,20.71,20.71,0,0,1,8.54,5.21,19.22,19.22,0,0,1,4.55,8.25,40.62,40.62,0,0,1,1.33,10.79v37.57q-3.87.86-10.79,2a103.19,103.19,0,0,1-16.72,1.16,52.89,52.89,0,0,1-11.22-1.1,24.1,24.1,0,0,1-8.66-3.57,16.32,16.32,0,0,1-5.58-6.49,22.41,22.41,0,0,1-1.94-9.82,18.67,18.67,0,0,1,2.24-9.45,17.26,17.26,0,0,1,6-6.18,27.18,27.18,0,0,1,8.61-3.34,48.76,48.76,0,0,1,10.06-1,55,55,0,0,1,6.24.31,28.06,28.06,0,0,1,4.43.78v-1.69a10,10,0,0,0-2.79-7.4q-2.79-2.79-9.7-2.79a62.36,62.36,0,0,0-9.09.67,39.42,39.42,0,0,0-7.76,1.88l-2.3-14.55c1-.32,2.36-.66,3.94-1s3.29-.68,5.15-1,3.82-.52,5.88-.72S594.74,177,596.84,177Zm1.46,52.86c1.77,0,3.47,0,5.09-.13a35.71,35.71,0,0,0,3.88-.36V215.7q-1.1-.24-3.27-.48a36.92,36.92,0,0,0-4-.24,36.1,36.1,0,0,0-4.79.3,12.56,12.56,0,0,0-3.94,1.15,6.76,6.76,0,0,0-2.67,2.3,6.39,6.39,0,0,0-1,3.64q0,4.24,2.85,5.88A15.74,15.74,0,0,0,598.3,229.89Z"/><path class="cls-2" d="M645,180.91a101,101,0,0,1,11.88-2.48,97.35,97.35,0,0,1,15.27-1.15,37.1,37.1,0,0,1,13.52,2.12,20.34,20.34,0,0,1,8.55,6,23.39,23.39,0,0,1,4.48,9.21,49,49,0,0,1,1.33,11.88v36H682V208.67q0-8.73-2.3-12.36t-8.61-3.64c-1.29,0-2.66.06-4.12.18s-2.75.26-3.88.43v49.21H645Z"/><path class="cls-2" d="M738.55,201.63c1.78-1.93,3.61-3.94,5.51-6s3.73-4.16,5.51-6.2,3.45-4,5-5.85,2.93-3.45,4.06-4.82h21.48q-6.43,7.38-12.55,14.09t-13.39,13.85a85.4,85.4,0,0,1,7.51,7.83q3.88,4.56,7.52,9.42t6.67,9.71q3,4.86,5.09,8.86H760.21c-1.29-2.1-2.77-4.43-4.42-7s-3.41-5.1-5.26-7.65-3.81-5-5.87-7.35a49.8,49.8,0,0,0-6.11-6v28H720.49V151.33l18.06-2.9Z"/><path class="cls-3" d="M834.14,209.54a38.57,38.57,0,0,1,2.31-13.39,31.36,31.36,0,0,1,17.25-18.38A35.07,35.07,0,0,1,867.91,175,44.44,44.44,0,0,1,886,178.65l-3.86,14.82a48.57,48.57,0,0,0-5.73-1.74,29.87,29.87,0,0,0-7-.75q-8.22,0-12.27,5.11t-4,13.45q0,8.85,3.8,13.71t13.27,4.86a46.26,46.26,0,0,0,7.23-.62,30.7,30.7,0,0,0,7.1-2l2.61,15.2a43.49,43.49,0,0,1-8.1,2.37,53,53,0,0,1-10.71,1,40.45,40.45,0,0,1-15.45-2.68,29.16,29.16,0,0,1-10.65-7.29,28.38,28.38,0,0,1-6.11-10.9A46.24,46.24,0,0,1,834.14,209.54Z"/><path class="cls-2" d="M932.47,177a41.85,41.85,0,0,1,13.33,1.82,20.69,20.69,0,0,1,8.55,5.21,19.2,19.2,0,0,1,4.54,8.25,40.6,40.6,0,0,1,1.34,10.79v37.57q-3.88.86-10.79,2a103.33,103.33,0,0,1-16.73,1.16,52.79,52.79,0,0,1-11.21-1.1,24.15,24.15,0,0,1-8.67-3.57,16.48,16.48,0,0,1-5.58-6.49,22.41,22.41,0,0,1-1.93-9.82,18.57,18.57,0,0,1,2.24-9.45,17.1,17.1,0,0,1,6-6.18,27,27,0,0,1,8.6-3.34,48.85,48.85,0,0,1,10.07-1,55.08,55.08,0,0,1,6.24.31,27.91,27.91,0,0,1,4.42.78v-1.69a10,10,0,0,0-2.78-7.4q-2.79-2.79-9.7-2.79a62.25,62.25,0,0,0-9.09.67,39.24,39.24,0,0,0-7.76,1.88l-2.31-14.55c1-.32,2.37-.66,4-1s3.29-.68,5.15-1,3.82-.52,5.88-.72S930.37,177,932.47,177Zm1.45,52.86c1.78,0,3.48,0,5.09-.13a35.71,35.71,0,0,0,3.88-.36V215.7a33,33,0,0,0-3.27-.48,36.78,36.78,0,0,0-4-.24,36.21,36.21,0,0,0-4.79.3,12.56,12.56,0,0,0-3.94,1.15,6.73,6.73,0,0,0-2.66,2.3,6.39,6.39,0,0,0-1,3.64q0,4.24,2.84,5.88A15.77,15.77,0,0,0,933.92,229.89Z"/><path class="cls-2" d="M980.65,180.91a101.41,101.41,0,0,1,11.88-2.48,97.38,97.38,0,0,1,15.28-1.15,37,37,0,0,1,13.51,2.12,20.21,20.21,0,0,1,8.55,6,23.54,23.54,0,0,1,4.49,9.21,49.52,49.52,0,0,1,1.33,11.88v36h-18.06V208.67q0-8.73-2.31-12.36t-8.6-3.64c-1.3,0-2.67.06-4.12.18s-2.75.26-3.88.43v49.21H980.65Z"/><path class="cls-2" d="M1073.54,242.49q-6.21-12.12-12.6-28.36t-12.1-35.4H1068q1.21,4.72,2.86,10.24t3.41,11.16q1.77,5.63,3.53,11t3.47,9.7q1.59-4.36,3.41-9.7t3.59-11q1.77-5.64,3.41-11.16t2.86-10.24h18.68q-5.71,19.16-12.1,35.4t-12.58,28.36Z"/><path class="cls-2" d="M1151.76,177a41.89,41.89,0,0,1,13.33,1.82,20.71,20.71,0,0,1,8.54,5.21,19.22,19.22,0,0,1,4.55,8.25,40.62,40.62,0,0,1,1.33,10.79v37.57q-3.87.86-10.79,2a103.19,103.19,0,0,1-16.72,1.16,52.89,52.89,0,0,1-11.22-1.1,24.1,24.1,0,0,1-8.66-3.57,16.32,16.32,0,0,1-5.58-6.49,22.41,22.41,0,0,1-1.94-9.82,18.67,18.67,0,0,1,2.24-9.45,17.26,17.26,0,0,1,6-6.18,27.18,27.18,0,0,1,8.61-3.34,48.76,48.76,0,0,1,10.06-1,55,55,0,0,1,6.24.31,28.06,28.06,0,0,1,4.43.78v-1.69a10,10,0,0,0-2.79-7.4q-2.79-2.79-9.7-2.79a62.36,62.36,0,0,0-9.09.67,39.42,39.42,0,0,0-7.76,1.88l-2.3-14.55c1-.32,2.36-.66,3.94-1s3.29-.68,5.15-1,3.82-.52,5.88-.72S1149.65,177,1151.76,177Zm1.45,52.86c1.78,0,3.47,0,5.09-.13a35.71,35.71,0,0,0,3.88-.36V215.7q-1.1-.24-3.27-.48a36.92,36.92,0,0,0-4-.24,36.1,36.1,0,0,0-4.79.3,12.56,12.56,0,0,0-3.94,1.15,6.76,6.76,0,0,0-2.67,2.3,6.39,6.39,0,0,0-1,3.64q0,4.24,2.85,5.88A15.74,15.74,0,0,0,1153.21,229.89Z"/><path class="cls-2" d="M1218.24,229.52c3.32,0,5.66-.32,7-1a3.76,3.76,0,0,0,2.06-3.76q0-2.17-2.67-3.82a51.77,51.77,0,0,0-8.12-3.69,83,83,0,0,1-7.7-3.27,22.88,22.88,0,0,1-5.88-4.07,16.33,16.33,0,0,1-3.76-5.63,20.85,20.85,0,0,1-1.33-7.88q0-9,6.67-14.18t18.3-5.22a59.19,59.19,0,0,1,11.15,1,51.84,51.84,0,0,1,8.49,2.25l-3.15,14.06a65.24,65.24,0,0,0-6.85-1.94,37.06,37.06,0,0,0-8.31-.85q-8.48,0-8.48,4.73a5,5,0,0,0,.36,1.94,4.11,4.11,0,0,0,1.46,1.63,19.36,19.36,0,0,0,3,1.71q1.88.91,4.79,2a74.92,74.92,0,0,1,9.81,4.34,23.65,23.65,0,0,1,6.13,4.62,14.38,14.38,0,0,1,3.15,5.5,24.7,24.7,0,0,1,.91,7q0,9.43-7.1,14.27t-20.06,4.84a56.89,56.89,0,0,1-21.94-3.88l3-14.67a58.57,58.57,0,0,0,9.46,2.85A45.7,45.7,0,0,0,1218.24,229.52Z"/><rect class="cls-4" width="1400" height="400"/></g></g></g></svg>