<?xml version="1.0" encoding="utf-8"?>
<!-- Generator: Adobe Illustrator 26.3.1, SVG Export Plug-In . SVG Version: 6.00 Build 0)  -->
<svg version="1.1" id="レイヤー_1" xmlns="http://www.w3.org/2000/svg" xmlns:xlink="http://www.w3.org/1999/xlink" x="0px"
	 y="0px" viewBox="0 0 1400 400" style="enable-background:new 0 0 1400 400;" xml:space="preserve">
<style type="text/css">
	.st0{fill:#FFFFFF;}
	.st1{fill:none;}
</style>
<g id="レイヤー_2_00000062181703776736950090000016134984961099771027_">
	<g id="レイヤー_2-2">
		<g id="type01_b">
			<path class="st0" d="M155.2,239.9l176-48.4c13-3.6,22-15.4,22-28.9v-16.8l-198,54.5L155.2,239.9z"/>
			<polygon class="st0" points="185,182.6 185,174.8 185,144.6 215.2,144.6 245.4,144.6 275.7,144.6 275.7,157.6 305.9,149.3 
				305.9,144.6 305.9,114.3 275.7,114.3 245.4,114.3 215.2,114.3 185,114.3 154.7,114.3 154.7,144.6 154.7,174.8 154.7,190.9 			"/>
			<polygon class="st0" points="298.3,209.4 298.3,217.2 298.3,247.4 268.1,247.4 237.9,247.4 211.4,247.4 207.6,247.4 207.6,234.4 
				177.4,242.7 177.4,247.4 177.4,277.7 207.6,277.7 211.4,277.7 237.9,277.7 268.1,277.7 298.3,277.7 328.6,277.7 328.6,247.4 
				328.6,217.2 328.6,201.1 			"/>
			<path class="st0" d="M504.6,210.6c0.1,4.7-0.7,9.4-2.2,13.8c-1.4,3.9-3.6,7.6-6.5,10.6c-2.9,3-6.5,5.3-10.4,6.7
				c-4.5,1.6-9.3,2.5-14.1,2.4c-2.2,0-4.5-0.1-6.9-0.3s-4.7-0.5-7-0.8s-4.5-0.7-6.6-1.2s-4-0.9-5.6-1.4v-89.1l18.1-2.9v31.8
				c2-0.9,4.1-1.6,6.3-2.1c2.3-0.5,4.6-0.7,7-0.7c4.1-0.1,8.2,0.7,12,2.4c3.4,1.5,6.4,3.8,8.7,6.7c2.4,3.1,4.3,6.7,5.3,10.5
				C504,201.4,504.6,206,504.6,210.6z M486.1,210.1c0-11.6-4.3-17.5-12.9-17.5c-1.9,0-3.7,0.2-5.5,0.7c-1.6,0.4-3.1,1-4.4,1.8v32.8
				c0.9,0.2,2,0.3,3.4,0.4s2.9,0.2,4.5,0.2c4.9,0,8.6-1.7,11.2-5.1C484.9,220.2,486.2,215.7,486.1,210.1z"/>
			<path class="st0" d="M548,243.7c-4.3,0-8.6-0.5-12.8-1.7c-2.9-0.8-5.6-2.4-7.8-4.4c-1.9-1.9-3.2-4.3-3.9-6.9c-0.7-3-1-6.1-1-9.1
				v-70.2l18.1-2.9v69.4c0,1.5,0.1,2.9,0.4,4.4c0.2,1.2,0.7,2.3,1.4,3.3c0.8,1,1.8,1.7,3,2.2c1.7,0.6,3.4,1,5.2,1.1L548,243.7z"/>
			<path class="st0" d="M596.8,177c4.5-0.1,9,0.5,13.3,1.8c3.2,1,6.2,2.8,8.5,5.2c2.2,2.3,3.7,5.2,4.5,8.2c0.9,3.5,1.4,7.1,1.3,10.8
				v37.6c-2.6,0.6-6.2,1.2-10.8,2c-5.5,0.8-11.1,1.2-16.7,1.2c-3.8,0-7.5-0.3-11.2-1.1c-3.1-0.6-6-1.8-8.7-3.6
				c-2.4-1.6-4.3-3.9-5.6-6.5c-1.4-3.1-2-6.4-1.9-9.8c-0.1-3.3,0.7-6.6,2.2-9.4c1.4-2.5,3.5-4.7,6-6.2c2.7-1.6,5.6-2.7,8.6-3.3
				c3.3-0.7,6.7-1,10.1-1c2.1,0,4.2,0.1,6.2,0.3c1.5,0.1,3,0.4,4.4,0.8v-1.7c0.1-2.7-0.9-5.4-2.8-7.4c-1.9-1.9-5.1-2.8-9.7-2.8
				c-3,0-6.1,0.2-9.1,0.7c-2.6,0.4-5.2,1-7.8,1.9l-2.3-14.6c1-0.3,2.4-0.7,3.9-1s3.3-0.7,5.2-1s3.8-0.5,5.9-0.7S594.7,177,596.8,177
				z M598.3,229.9c1.8,0,3.5,0,5.1-0.1c1.3,0,2.6-0.2,3.9-0.4v-13.7c-0.7-0.2-1.8-0.3-3.3-0.5c-1.3-0.2-2.7-0.2-4-0.2
				c-1.6,0-3.2,0.1-4.8,0.3c-1.4,0.2-2.7,0.6-3.9,1.1c-1.1,0.5-2,1.3-2.7,2.3c-0.7,1.1-1,2.4-1,3.6c0,2.8,1,4.8,2.8,5.9
				C592.9,229.5,595.6,230,598.3,229.9L598.3,229.9z"/>
			<path class="st0" d="M645,180.9c3.9-1.1,7.9-1.9,11.9-2.5c5.1-0.8,10.2-1.2,15.3-1.1c4.6-0.1,9.2,0.6,13.5,2.1
				c3.3,1.2,6.3,3.3,8.5,6c2.2,2.7,3.7,5.8,4.5,9.2c0.9,3.9,1.4,7.9,1.3,11.9v36h-18v-33.8c0-5.8-0.8-9.9-2.3-12.4s-4.4-3.6-8.6-3.6
				c-1.3,0-2.7,0.1-4.1,0.2s-2.8,0.3-3.9,0.4v49.2H645V180.9z"/>
			<path class="st0" d="M738.5,201.6c1.8-1.9,3.6-3.9,5.5-6s3.7-4.2,5.5-6.2s3.5-4,5-5.9s2.9-3.4,4.1-4.8h21.5
				c-4.3,4.9-8.5,9.6-12.5,14.1c-4.1,4.5-8.5,9.1-13.4,13.9c2.7,2.4,5.2,5.1,7.5,7.8c2.6,3,5.1,6.2,7.5,9.4c2.4,3.2,4.7,6.5,6.7,9.7
				c2,3.2,3.7,6.2,5.1,8.9h-20.8c-1.3-2.1-2.8-4.4-4.4-7s-3.4-5.1-5.3-7.6s-3.8-5-5.9-7.4c-1.9-2.2-3.9-4.2-6.1-6v28h-18.1v-91.2
				l18.1-2.9V201.6z"/>
			<path class="st0" d="M834.1,209.5c0-4.6,0.8-9.1,2.3-13.4c2.9-8.3,9.2-14.9,17.2-18.4c4.5-1.9,9.3-2.8,14.2-2.8
				c6.2-0.1,12.4,1.2,18.1,3.6l-3.9,14.8c-1.9-0.7-3.8-1.3-5.7-1.7c-2.3-0.5-4.6-0.8-7-0.8c-5.5,0-9.6,1.7-12.3,5.1
				c-2.7,3.4-4,7.9-4,13.4c0,5.9,1.3,10.5,3.8,13.7s7,4.9,13.3,4.9c2.4,0,4.8-0.2,7.2-0.6c2.4-0.4,4.8-1.1,7.1-2l2.6,15.2
				c-2.6,1.1-5.3,1.8-8.1,2.4c-3.5,0.7-7.1,1-10.7,1c-5.3,0.1-10.5-0.8-15.5-2.7c-4-1.6-7.7-4.1-10.7-7.3c-2.8-3.1-4.9-6.9-6.1-10.9
				C834.8,218.8,834.1,214.2,834.1,209.5z"/>
			<path class="st0" d="M932.5,177c4.5-0.1,9,0.5,13.3,1.8c3.2,1,6.2,2.8,8.5,5.2c2.2,2.3,3.7,5.2,4.5,8.2c0.9,3.5,1.4,7.1,1.3,10.8
				v37.6c-2.6,0.6-6.2,1.2-10.8,2c-5.5,0.8-11.1,1.2-16.7,1.2c-3.8,0-7.5-0.3-11.2-1.1c-3.1-0.6-6-1.8-8.7-3.6
				c-2.4-1.6-4.3-3.9-5.6-6.5c-1.4-3.1-2-6.4-1.9-9.8c-0.1-3.3,0.7-6.6,2.2-9.4c1.4-2.5,3.5-4.7,6-6.2c2.7-1.6,5.6-2.7,8.6-3.3
				c3.3-0.7,6.7-1,10.1-1c2.1,0,4.2,0.1,6.2,0.3c1.5,0.1,3,0.4,4.4,0.8v-1.7c0.1-2.7-0.9-5.4-2.8-7.4c-1.9-1.9-5.1-2.8-9.7-2.8
				c-3,0-6.1,0.2-9.1,0.7c-2.6,0.4-5.2,1-7.8,1.9l-2.3-14.6c1-0.3,2.4-0.7,4-1s3.3-0.7,5.2-1s3.8-0.5,5.9-0.7S930.4,177,932.5,177z
				 M933.9,229.9c1.8,0,3.5,0,5.1-0.1c1.3,0,2.6-0.2,3.9-0.4v-13.7c-1.1-0.2-2.2-0.4-3.3-0.5c-1.3-0.2-2.7-0.2-4-0.2
				c-1.6,0-3.2,0.1-4.8,0.3c-1.4,0.2-2.7,0.6-3.9,1.1c-1.1,0.5-2,1.3-2.7,2.3c-0.7,1.1-1,2.4-1,3.6c0,2.8,0.9,4.8,2.8,5.9
				C928.5,229.5,931.2,230,933.9,229.9L933.9,229.9z"/>
			<path class="st0" d="M980.7,180.9c3.9-1.1,7.9-1.9,11.9-2.5c5.1-0.8,10.2-1.2,15.3-1.1c4.6-0.1,9.2,0.6,13.5,2.1
				c3.3,1.2,6.3,3.3,8.6,6c2.2,2.7,3.7,5.8,4.5,9.2c0.9,3.9,1.4,7.9,1.3,11.9v36h-18.1v-33.8c0-5.8-0.8-9.9-2.3-12.4
				s-4.4-3.6-8.6-3.6c-1.3,0-2.7,0.1-4.1,0.2s-2.8,0.3-3.9,0.4v49.2h-18.1V180.9z"/>
			<path class="st0" d="M1073.5,242.5c-4.1-8.1-8.3-17.5-12.6-28.4s-8.3-22.6-12.1-35.4h19.2c0.8,3.1,1.8,6.6,2.9,10.2
				c1.1,3.7,2.2,7.4,3.4,11.2c1.2,3.8,2.4,7.4,3.5,11c1.2,3.6,2.3,6.8,3.5,9.7c1.1-2.9,2.2-6.1,3.4-9.7s2.4-7.2,3.6-11
				c1.2-3.8,2.3-7.5,3.4-11.2c1.1-3.7,2-7.1,2.9-10.2h18.7c-3.8,12.8-7.8,24.6-12.1,35.4s-8.5,20.3-12.6,28.4H1073.5z"/>
			<path class="st0" d="M1151.8,177c4.5-0.1,9,0.5,13.3,1.8c3.2,1,6.2,2.8,8.5,5.2c2.2,2.3,3.7,5.2,4.6,8.2
				c0.9,3.5,1.4,7.1,1.3,10.8v37.6c-2.6,0.6-6.2,1.2-10.8,2c-5.5,0.8-11.1,1.2-16.7,1.2c-3.8,0-7.5-0.3-11.2-1.1
				c-3.1-0.6-6-1.8-8.7-3.6c-2.4-1.6-4.3-3.9-5.6-6.5c-1.4-3.1-2-6.4-1.9-9.8c-0.1-3.3,0.7-6.6,2.2-9.4c1.4-2.5,3.5-4.7,6-6.2
				c2.7-1.6,5.6-2.7,8.6-3.3c3.3-0.7,6.7-1,10.1-1c2.1,0,4.2,0.1,6.2,0.3c1.5,0.1,3,0.4,4.4,0.8v-1.7c0.1-2.7-0.9-5.4-2.8-7.4
				c-1.9-1.9-5.1-2.8-9.7-2.8c-3,0-6.1,0.2-9.1,0.7c-2.6,0.4-5.2,1-7.8,1.9l-2.3-14.6c1-0.3,2.4-0.7,3.9-1s3.3-0.7,5.2-1
				s3.8-0.5,5.9-0.7S1149.7,177,1151.8,177z M1153.2,229.9c1.8,0,3.5,0,5.1-0.1c1.3,0,2.6-0.2,3.9-0.4v-13.7
				c-0.7-0.2-1.8-0.3-3.3-0.5c-1.3-0.2-2.7-0.2-4-0.2c-1.6,0-3.2,0.1-4.8,0.3c-1.4,0.2-2.7,0.6-3.9,1.1c-1.1,0.5-2,1.3-2.7,2.3
				c-0.7,1.1-1,2.4-1,3.6c0,2.8,0.9,4.8,2.8,5.9C1147.8,229.5,1150.5,230,1153.2,229.9L1153.2,229.9z"/>
			<path class="st0" d="M1218.2,229.5c3.3,0,5.7-0.3,7-1c1.4-0.7,2.2-2.2,2.1-3.8c0-1.4-0.9-2.7-2.7-3.8c-2.6-1.5-5.3-2.7-8.1-3.7
				c-2.6-1-5.2-2.1-7.7-3.3c-2.2-1-4.1-2.4-5.9-4.1c-1.6-1.6-2.9-3.5-3.8-5.6c-0.9-2.5-1.4-5.2-1.3-7.9c0-6,2.2-10.7,6.7-14.2
				c4.4-3.5,10.5-5.2,18.3-5.2c3.7,0,7.5,0.3,11.2,1c2.9,0.5,5.7,1.3,8.5,2.2l-3.2,14.1c-2.2-0.8-4.5-1.4-6.8-1.9
				c-2.7-0.6-5.5-0.9-8.3-0.9c-5.7,0-8.5,1.6-8.5,4.7c0,0.7,0.1,1.3,0.4,1.9c0.3,0.7,0.8,1.2,1.5,1.6c0.9,0.7,2,1.2,3,1.7
				c1.3,0.6,2.8,1.3,4.8,2c3.4,1.2,6.6,2.7,9.8,4.3c2.3,1.2,4.4,2.8,6.1,4.6c1.4,1.6,2.5,3.5,3.2,5.5c0.6,2.3,0.9,4.6,0.9,7
				c0,6.3-2.4,11-7.1,14.3c-4.7,3.2-11.4,4.8-20.1,4.8c-7.5,0.2-15-1.2-21.9-3.9l3-14.7c3.1,1.2,6.2,2.2,9.5,2.9
				C1211.8,229.1,1215,229.5,1218.2,229.5z"/>
			<rect class="st1" width="1400" height="400"/>
		</g>
	</g>
</g>
</svg>
